{"accessors":[{"bufferView":0,"byteOffset":0,"componentType":5126,"count":24,"max":[1.202246,2.251903,0.099999],"min":[0.000001,0,0],"normalized":false,"type":"VEC3"},{"bufferView":1,"byteOffset":0,"componentType":5126,"count":24,"max":[1,0.000015,1,1],"min":[0.000024,-0.000031,-1,-1],"normalized":false,"type":"VEC4"},{"bufferView":2,"byteOffset":0,"componentType":5126,"count":24,"max":[1,1,1],"min":[-1,-1,-1],"normalized":false,"type":"VEC3"},{"bufferView":3,"byteOffset":0,"componentType":5126,"count":24,"max":[0.758419,0.999573],"min":[0.641566,0.803998],"normalized":false,"type":"VEC2"},{"bufferView":4,"byteOffset":0,"componentType":5125,"count":36,"max":[23],"min":[0],"normalized":false,"type":"SCALAR"},{"bufferView":5,"byteOffset":0,"componentType":5126,"count":56,"max":[0.749559,2.429878,0.149996],"min":[-0.749572,0,-0.15],"normalized":false,"type":"VEC3"},{"bufferView":6,"byteOffset":0,"componentType":5126,"count":56,"max":[1,0.00272,1,1],"min":[0,-0.002536,-1,-1],"normalized":false,"type":"VEC4"},{"bufferView":7,"byteOffset":0,"componentType":5126,"count":56,"max":[1,1,1],"min":[-1,-1,-1],"normalized":false,"type":"VEC3"},{"bufferView":8,"byteOffset":0,"componentType":5126,"count":56,"max":[0.781979,0.999573],"min":[0.618006,0.77409],"normalized":false,"type":"VEC2"},{"bufferView":9,"byteOffset":0,"componentType":5125,"count":84,"max":[55],"min":[0],"normalized":false,"type":"SCALAR"},{"bufferView":10,"byteOffset":0,"componentType":5126,"count":48,"max":[1.2,3,0.149996],"min":[-1.2,0,-0.15],"normalized":false,"type":"VEC3"},{"bufferView":11,"byteOffset":0,"componentType":5126,"count":48,"max":[1,0.009352,1,1],"min":[0.000024,-0.011572,-1,-1],"normalized":false,"type":"VEC4"},{"bufferView":12,"byteOffset":0,"componentType":5126,"count":48,"max":[1,1,1],"min":[-1,-1,-1],"normalized":false,"type":"VEC3"},{"bufferView":13,"byteOffset":0,"componentType":5126,"count":48,"max":[0.798856,0.999573],"min":[0.601129,0.75053],"normalized":false,"type":"VEC2"},{"bufferView":14,"byteOffset":0,"componentType":5125,"count":72,"max":[47],"min":[0],"normalized":false,"type":"SCALAR"},{"bufferView":15,"byteOffset":0,"componentType":5126,"count":24,"max":[1.207627,2.501247,0.1],"min":[-0.000001,0,0],"normalized":false,"type":"VEC3"},{"bufferView":16,"byteOffset":0,"componentType":5126,"count":24,"max":[1,0,-0.000015,1],"min":[1,0,-0.000046,-1],"normalized":false,"type":"VEC4"},{"bufferView":17,"byteOffset":0,"componentType":5126,"count":24,"max":[1,1,1],"min":[-1,-1,-1],"normalized":false,"type":"VEC3"},{"bufferView":18,"byteOffset":0,"componentType":5126,"count":24,"max":[0.550318,1],"min":[0.449682,0.791563],"normalized":false,"type":"VEC2"},{"bufferView":19,"byteOffset":0,"componentType":5125,"count":36,"max":[23],"min":[0],"normalized":false,"type":"SCALAR"},{"bufferView":20,"byteOffset":0,"componentType":5126,"count":48,"max":[0.749774,2.626174,0.149996],"min":[-0.749787,0,-0.15],"normalized":false,"type":"VEC3"},{"bufferView":21,"byteOffset":0,"componentType":5126,"count":48,"max":[1,0.000031,1,1],"min":[0,-0.000031,-1,-1],"normalized":false,"type":"VEC4"},{"bufferView":22,"byteOffset":0,"componentType":5126,"count":48,"max":[1,1,1],"min":[-1,-1,-1],"normalized":false,"type":"VEC3"},{"bufferView":23,"byteOffset":0,"componentType":5126,"count":48,"max":[0.584054,1],"min":[0.41593,0.762676],"normalized":false,"type":"VEC2"},{"bufferView":24,"byteOffset":0,"componentType":5125,"count":72,"max":[47],"min":[0],"normalized":false,"type":"SCALAR"},{"bufferView":25,"byteOffset":0,"componentType":5126,"count":48,"max":[1.2,3,0.149996],"min":[-1.2,0,-0.15],"normalized":false,"type":"VEC3"},{"bufferView":26,"byteOffset":0,"componentType":5126,"count":48,"max":[1,0.000015,1,1],"min":[0.000024,0,-1,-1],"normalized":false,"type":"VEC4"},{"bufferView":27,"byteOffset":0,"componentType":5126,"count":48,"max":[1,1,1],"min":[-1,-1,-1],"normalized":false,"type":"VEC3"},{"bufferView":28,"byteOffset":0,"componentType":5126,"count":48,"max":[0.6,1],"min":[0.399985,0.749996],"normalized":false,"type":"VEC2"},{"bufferView":29,"byteOffset":0,"componentType":5125,"count":72,"max":[47],"min":[0],"normalized":false,"type":"SCALAR"}],"asset":{"generator":"Godot Engine v4.2.2.stable.official@15073afe3856abd2aa1622492fe50026c7d63dc1","version":"2.0"},"bufferViews":[{"buffer":0,"byteLength":288,"byteOffset":0},{"buffer":0,"byteLength":384,"byteOffset":288},{"buffer":0,"byteLength":288,"byteOffset":672},{"buffer":0,"byteLength":192,"byteOffset":960},{"buffer":0,"byteLength":144,"byteOffset":1152},{"buffer":0,"byteLength":672,"byteOffset":1296},{"buffer":0,"byteLength":896,"byteOffset":1968},{"buffer":0,"byteLength":672,"byteOffset":2864},{"buffer":0,"byteLength":448,"byteOffset":3536},{"buffer":0,"byteLength":336,"byteOffset":3984},{"buffer":0,"byteLength":576,"byteOffset":4320},{"buffer":0,"byteLength":768,"byteOffset":4896},{"buffer":0,"byteLength":576,"byteOffset":5664},{"buffer":0,"byteLength":384,"byteOffset":6240},{"buffer":0,"byteLength":288,"byteOffset":6624},{"buffer":0,"byteLength":288,"byteOffset":6912},{"buffer":0,"byteLength":384,"byteOffset":7200},{"buffer":0,"byteLength":288,"byteOffset":7584},{"buffer":0,"byteLength":192,"byteOffset":7872},{"buffer":0,"byteLength":144,"byteOffset":8064},{"buffer":0,"byteLength":576,"byteOffset":8208},{"buffer":0,"byteLength":768,"byteOffset":8784},{"buffer":0,"byteLength":576,"byteOffset":9552},{"buffer":0,"byteLength":384,"byteOffset":10128},{"buffer":0,"byteLength":288,"byteOffset":10512},{"buffer":0,"byteLength":576,"byteOffset":10800},{"buffer":0,"byteLength":768,"byteOffset":11376},{"buffer":0,"byteLength":576,"byteOffset":12144},{"buffer":0,"byteLength":384,"byteOffset":12720},{"buffer":0,"byteLength":288,"byteOffset":13104}],"buffers":[{"byteLength":13392,"uri":"doors0.bin"}],"extensionsUsed":["GODOT_single_root"],"images":[{"uri":"textures%2FDoorSet_Mat_albedo000.png"},{"uri":"textures%2FDoorSet_Mat_orm000.png"},{"uri":"textures%2FDoorSet_Mat_normal000.png"}],"materials":[{"doubleSided":true,"extensions":{},"name":"DoorSet_Mat","normalTexture":{"index":2,"scale":1},"pbrMetallicRoughness":{"baseColorFactor":[0.99999988079071,0.99999988079071,0.99999988079071,1],"baseColorTexture":{"index":0},"metallicFactor":1,"metallicRoughnessTexture":{"index":1},"roughnessFactor":1}}],"meshes":[{"extras":{"targetNames":[]},"primitives":[{"attributes":{"NORMAL":2,"POSITION":0,"TANGENT":1,"TEXCOORD_0":3},"indices":4,"material":0,"mode":4}]},{"extras":{"targetNames":[]},"primitives":[{"attributes":{"NORMAL":7,"POSITION":5,"TANGENT":6,"TEXCOORD_0":8},"indices":9,"material":0,"mode":4}]},{"extras":{"targetNames":[]},"primitives":[{"attributes":{"NORMAL":12,"POSITION":10,"TANGENT":11,"TEXCOORD_0":13},"indices":14,"material":0,"mode":4}]},{"extras":{"targetNames":[]},"primitives":[{"attributes":{"NORMAL":17,"POSITION":15,"TANGENT":16,"TEXCOORD_0":18},"indices":19,"material":0,"mode":4}]},{"extras":{"targetNames":[]},"primitives":[{"attributes":{"NORMAL":22,"POSITION":20,"TANGENT":21,"TEXCOORD_0":23},"indices":24,"material":0,"mode":4}]},{"extras":{"targetNames":[]},"primitives":[{"attributes":{"NORMAL":27,"POSITION":25,"TANGENT":26,"TEXCOORD_0":28},"indices":29,"material":0,"mode":4}]}],"nodes":[{"children":[1,5],"extensions":{},"name":"Node3D"},{"children":[2,3,4],"extensions":{},"name":"Door_4_grp","translation":[3.60667896270752,0,1]},{"extensions":{},"mesh":0,"name":"Door_4","translation":[-0.60112762451172,0,-0.22633844614029]},{"extensions":{},"mesh":1,"name":"DoorFrame_4","translation":[0,0,-0.07633835077286]},{"extensions":{},"mesh":2,"name":"DoorOuterFrame_4"},{"children":[6,7,8],"extensions":{},"name":"Door_3_grp","translation":[-3.96535301208496,0,1]},{"extensions":{},"mesh":3,"name":"Door_3","translation":[-0.60381317138672,0,-0.22633910179138]},{"extensions":{},"mesh":4,"name":"DoorFrame_3","translation":[0,0,-0.07633835077286]},{"extensions":{},"mesh":5,"name":"DoorOuterFrame_3"}],"samplers":[{"magFilter":9729,"minFilter":9987,"wrapS":10497,"wrapT":10497}],"scene":0,"scenes":[{"nodes":[0]}],"textures":[{"sampler":0,"source":0},{"sampler":0,"source":1},{"sampler":0,"source":2}]}