{"accessors":[{"bufferView":0,"byteOffset":0,"componentType":5126,"count":32,"max":[2.083799,0,2.083799],"min":[-2.083799,-10.073423,-2.083799],"normalized":false,"type":"VEC3"},{"bufferView":1,"byteOffset":0,"componentType":5126,"count":32,"max":[1,0,-0.000015,1],"min":[1,0,-0.000046,-1],"normalized":false,"type":"VEC4"},{"bufferView":2,"byteOffset":0,"componentType":5126,"count":32,"max":[0.99426,0.10704,0.99426],"min":[-0.994262,0.106966,-0.994258],"normalized":false,"type":"VEC3"},{"bufferView":3,"byteOffset":0,"componentType":5126,"count":32,"max":[0,1],"min":[0,1],"normalized":false,"type":"VEC2"},{"bufferView":4,"byteOffset":0,"componentType":5125,"count":96,"max":[31],"min":[0],"normalized":false,"type":"SCALAR"},{"bufferView":5,"byteOffset":0,"componentType":5126,"count":96,"max":[2.0838,0,2.0838],"min":[-2.0838,-10.0734,-2.0838],"normalized":false,"type":"VEC3"},{"bufferView":6,"byteOffset":0,"componentType":5125,"count":96,"max":[95],"min":[0],"normalized":false,"type":"SCALAR"},{"bufferView":7,"byteOffset":0,"componentType":5126,"count":288,"max":[1,0.331494,1],"min":[-1,-0.573569,-1],"normalized":false,"type":"VEC3"},{"bufferView":8,"byteOffset":0,"componentType":5126,"count":288,"max":[1,0.752396,1,1],"min":[-0.99473,-0.85632,-1,-1],"normalized":false,"type":"VEC4"},{"bufferView":9,"byteOffset":0,"componentType":5126,"count":288,"max":[0.999539,0.844647,0.966741],"min":[-0.977873,-1,-0.991703],"normalized":false,"type":"VEC3"},{"bufferView":10,"byteOffset":0,"componentType":5126,"count":288,"max":[1,1],"min":[0,0.334406],"normalized":false,"type":"VEC2"},{"bufferView":11,"byteOffset":0,"componentType":5125,"count":1044,"max":[202],"min":[0],"normalized":false,"type":"SCALAR"},{"bufferView":12,"byteOffset":0,"componentType":5126,"count":186,"max":[0.056413,0.700432,0.056413],"min":[-0.056413,-0.700432,-0.056413],"normalized":false,"type":"VEC3"},{"bufferView":13,"byteOffset":0,"componentType":5126,"count":186,"max":[1,0.342784,0.888314,1],"min":[-0.882429,-0.579054,-0.888288,-1],"normalized":false,"type":"VEC4"},{"bufferView":14,"byteOffset":0,"componentType":5126,"count":186,"max":[0.999619,0.981617,0.993343],"min":[-0.98309,-0.968411,-0.992609],"normalized":false,"type":"VEC3"},{"bufferView":15,"byteOffset":0,"componentType":5126,"count":186,"max":[0.9375,0.334406],"min":[0,0.334406],"normalized":false,"type":"VEC2"},{"bufferView":16,"byteOffset":0,"componentType":5125,"count":180,"max":[31],"min":[0],"normalized":false,"type":"SCALAR"}],"asset":{"generator":"Godot Engine v4.2.2.stable.official@15073afe3856abd2aa1622492fe50026c7d63dc1","version":"2.0"},"bufferViews":[{"buffer":0,"byteLength":384,"byteOffset":0},{"buffer":0,"byteLength":512,"byteOffset":384},{"buffer":0,"byteLength":384,"byteOffset":896},{"buffer":0,"byteLength":256,"byteOffset":1280},{"buffer":0,"byteLength":384,"byteOffset":1536},{"buffer":0,"byteLength":1152,"byteOffset":1920},{"buffer":0,"byteLength":384,"byteOffset":3072},{"buffer":0,"byteLength":3456,"byteOffset":3456},{"buffer":0,"byteLength":4608,"byteOffset":6912},{"buffer":0,"byteLength":3456,"byteOffset":11520},{"buffer":0,"byteLength":2304,"byteOffset":14976},{"buffer":0,"byteLength":4176,"byteOffset":17280},{"buffer":0,"byteLength":2232,"byteOffset":21456},{"buffer":0,"byteLength":2976,"byteOffset":23688},{"buffer":0,"byteLength":2232,"byteOffset":26664},{"buffer":0,"byteLength":1488,"byteOffset":28896},{"buffer":0,"byteLength":720,"byteOffset":30384}],"buffers":[{"byteLength":31104,"uri":"lamp0.bin"}],"extensions":{"OMI_collider":{"colliders":[{"mesh":-1,"type":"hull"},{"isTrigger":true,"mesh":1,"type":"trimesh"}]}},"extensionsUsed":["GODOT_single_root","KHR_materials_unlit","OMI_collider","OMI_physics_body"],"materials":[{},{"extensions":{"KHR_materials_unlit":{}},"pbrMetallicRoughness":{"baseColorFactor":[0.283148258924484,0.0781874433159828,0.0129830194637179,1],"metallicFactor":0,"roughnessFactor":1}},{"doubleSided":true,"extensions":{},"name":"Material_002","pbrMetallicRoughness":{"baseColorFactor":[0.00103140866849571,0.00103140866849571,0.00103140866849571,1],"metallicFactor":0,"roughnessFactor":0.5}}],"meshes":[{"extras":{"targetNames":[]},"primitives":[{"attributes":{"NORMAL":2,"POSITION":0,"TANGENT":1,"TEXCOORD_0":3},"indices":4,"material":0,"mode":4}]},{"extras":{"targetNames":[]},"primitives":[{"attributes":{"POSITION":5},"indices":6,"mode":4}]},{"extras":{"targetNames":[]},"primitives":[{"attributes":{"NORMAL":9,"POSITION":7,"TANGENT":8,"TEXCOORD_0":10},"indices":11,"material":1,"mode":4}]},{"extras":{"targetNames":[]},"primitives":[{"attributes":{"NORMAL":14,"POSITION":12,"TANGENT":13,"TEXCOORD_0":15},"indices":16,"material":2,"mode":4}]}],"nodes":[{"children":[1,3,6,7],"extensions":{},"name":"Lamp"},{"children":[2],"extensions":{"OMI_physics_body":{"type":"rigid"}},"name":"RigidBody3D"},{"extensions":{"OMI_collider":{"collider":0}},"name":"CollisionShape3D","rotation":[1,-0,-0,0],"scale":[-126.389999389648,-34.9887008666992,-126.820999145508],"translation":[0,0.165796995162964,0]},{"children":[4],"extensions":{},"mesh":0,"name":"Light","scale":[0.701987981796265,0.701987981796265,0.701987981796265],"translation":[0.00060442101676017,-0.01574129983783,0]},{"children":[5],"extensions":{"OMI_physics_body":{"type":"trigger"}},"name":"StaticBody3D"},{"extensions":{"OMI_collider":{"collider":1}},"name":"CollisionShape3D2"},{"extensions":{},"mesh":2,"name":"Lamp Body","scale":[0.701987981796265,0.701987981796265,0.701987981796265],"translation":[0,0.386896997690201,0]},{"extensions":{},"mesh":3,"name":"Lamp Holder","scale":[0.629869997501373,1.63940000534058,0.629869997501373],"translation":[0,1.75402998924255,0]}],"scene":0,"scenes":[{"nodes":[0]}]}